<svg width="192" height="64" viewBox="0 0 192 64" fill="none" xmlns="http://www.w3.org/2000/svg">
<path d="M74.6667 38.4907L80.6307 20.1787H84.4387L90.4027 38.4907H86.9867L84.1867 28.7467C83.888 27.776 83.5987 26.7774 83.3187 25.7507C83.0574 24.724 82.796 23.7067 82.5347 22.6987H82.4227C82.18 23.7254 81.9187 24.752 81.6387 25.7787C81.3774 26.7867 81.0974 27.776 80.7987 28.7467L77.9707 38.4907H74.6667ZM78.1947 33.5347V30.9867H86.8187V33.5347H78.1947ZM97.168 44.5667C96.0666 44.5667 95.0866 44.436 94.228 44.1747C93.3693 43.9134 92.688 43.512 92.184 42.9707C91.6986 42.448 91.456 41.7854 91.456 40.9827C91.456 40.404 91.624 39.8627 91.96 39.3587C92.3146 38.8734 92.8 38.4347 93.416 38.0427V37.9307C93.08 37.7067 92.7906 37.408 92.548 37.0347C92.3053 36.6614 92.184 36.1947 92.184 35.6347C92.184 35.112 92.3333 34.6267 92.632 34.1787C92.9493 33.7307 93.304 33.3667 93.696 33.0867V32.9747C93.2293 32.62 92.8093 32.1254 92.436 31.4907C92.0813 30.856 91.904 30.1374 91.904 29.3347C91.904 28.2894 92.156 27.4027 92.66 26.6747C93.164 25.928 93.8266 25.368 94.648 24.9947C95.4693 24.6027 96.3653 24.4067 97.336 24.4067C97.7093 24.4067 98.0733 24.4347 98.428 24.4907C98.7826 24.5467 99.0906 24.6307 99.352 24.7427H104.28V27.1227H101.704V27.2347C101.965 27.5147 102.171 27.8414 102.32 28.2147C102.469 28.5694 102.544 28.9894 102.544 29.4747C102.544 30.4827 102.311 31.332 101.844 32.0227C101.377 32.7134 100.752 33.236 99.968 33.5907C99.184 33.9454 98.3066 34.1227 97.336 34.1227C97.0373 34.1227 96.7293 34.0947 96.412 34.0387C96.0946 33.9827 95.7773 33.8894 95.46 33.7587C95.2733 33.9454 95.1146 34.132 94.984 34.3187C94.8533 34.5054 94.788 34.7574 94.788 35.0747C94.788 35.4667 94.956 35.7747 95.292 35.9987C95.628 36.2227 96.2066 36.3347 97.028 36.3347H99.464C101.125 36.3347 102.376 36.6054 103.216 37.1467C104.075 37.6694 104.504 38.528 104.504 39.7227C104.504 40.6187 104.205 41.4307 103.608 42.1587C103.011 42.9054 102.161 43.4934 101.06 43.9227C99.9586 44.352 98.6613 44.5667 97.168 44.5667ZM97.336 32.1067C97.7653 32.1067 98.1573 32.004 98.512 31.7987C98.8853 31.5747 99.1746 31.2574 99.38 30.8467C99.604 30.4174 99.716 29.9134 99.716 29.3347C99.716 28.4574 99.4826 27.7854 99.016 27.3187C98.568 26.852 98.008 26.6187 97.336 26.6187C96.664 26.6187 96.0946 26.852 95.628 27.3187C95.1613 27.7854 94.928 28.4574 94.928 29.3347C94.928 29.9134 95.04 30.4174 95.264 30.8467C95.488 31.2574 95.7773 31.5747 96.132 31.7987C96.4866 32.004 96.888 32.1067 97.336 32.1067ZM97.672 42.4667C98.4 42.4667 99.044 42.364 99.604 42.1587C100.164 41.972 100.603 41.7014 100.92 41.3467C101.237 41.0107 101.396 40.6467 101.396 40.2547C101.396 39.7134 101.181 39.3494 100.752 39.1627C100.341 38.976 99.744 38.8827 98.96 38.8827H97.084C96.7106 38.8827 96.3746 38.864 96.076 38.8267C95.7773 38.7894 95.488 38.7427 95.208 38.6867C94.8533 38.9667 94.5826 39.256 94.396 39.5547C94.228 39.8534 94.144 40.1707 94.144 40.5067C94.144 41.1227 94.4613 41.5987 95.096 41.9347C95.7306 42.2894 96.5893 42.4667 97.672 42.4667ZM106.927 38.4907V24.7427H110.147V38.4907H106.927ZM108.523 22.3347C107.963 22.3347 107.496 22.1667 107.123 21.8307C106.768 21.4947 106.591 21.0467 106.591 20.4867C106.591 19.9267 106.768 19.488 107.123 19.1707C107.496 18.8347 107.963 18.6667 108.523 18.6667C109.102 18.6667 109.568 18.8347 109.923 19.1707C110.278 19.488 110.455 19.9267 110.455 20.4867C110.455 21.0467 110.278 21.4947 109.923 21.8307C109.568 22.1667 109.102 22.3347 108.523 22.3347ZM117.391 38.7707C116.626 38.7707 116.01 38.6214 115.543 38.3227C115.095 38.0054 114.769 37.5574 114.563 36.9787C114.358 36.4 114.255 35.7094 114.255 34.9067V18.7227H117.475V35.0747C117.475 35.4854 117.55 35.7654 117.699 35.9147C117.849 36.064 118.017 36.1387 118.203 36.1387C118.278 36.1387 118.343 36.1387 118.399 36.1387C118.474 36.12 118.567 36.1014 118.679 36.0827L119.099 38.4907C118.913 38.5654 118.67 38.6307 118.371 38.6867C118.091 38.7427 117.765 38.7707 117.391 38.7707ZM127.765 38.8267C126.477 38.8267 125.31 38.5467 124.265 37.9867C123.238 37.408 122.426 36.5867 121.829 35.5227C121.232 34.44 120.933 33.1334 120.933 31.6027C120.933 30.1094 121.241 28.8307 121.857 27.7667C122.473 26.684 123.266 25.8534 124.237 25.2747C125.208 24.696 126.234 24.4067 127.317 24.4067C128.568 24.4067 129.613 24.6867 130.453 25.2467C131.293 25.8067 131.918 26.5814 132.329 27.5707C132.758 28.5414 132.973 29.6614 132.973 30.9307C132.973 31.2294 132.954 31.5187 132.917 31.7987C132.898 32.0787 132.861 32.3494 132.805 32.6107H123.341V30.1467H130.117C130.117 29.1574 129.893 28.3827 129.445 27.8227C128.997 27.244 128.306 26.9547 127.373 26.9547C126.85 26.9547 126.337 27.0947 125.833 27.3747C125.348 27.6547 124.937 28.1307 124.601 28.8027C124.284 29.4747 124.125 30.408 124.125 31.6027C124.125 32.6854 124.312 33.572 124.685 34.2627C125.058 34.9347 125.553 35.4387 126.169 35.7747C126.785 36.092 127.448 36.2507 128.157 36.2507C128.754 36.2507 129.314 36.1667 129.837 35.9987C130.378 35.8307 130.882 35.5974 131.349 35.2987L132.469 37.3707C131.834 37.8187 131.106 38.1734 130.285 38.4347C129.482 38.696 128.642 38.8267 127.765 38.8267ZM136.328 38.4907V20.1787H147.36V22.9227H139.576V27.5987H146.156V30.3427H139.576V35.7467H147.64V38.4907H136.328ZM151.765 44.1467C151.392 44.1467 151.056 44.1187 150.757 44.0627C150.477 44.0067 150.216 43.9227 149.973 43.8107L150.589 41.4027C150.776 41.4587 150.944 41.496 151.093 41.5147C151.243 41.5334 151.392 41.5427 151.541 41.5427C152.269 41.5427 152.848 41.3187 153.277 40.8707C153.725 40.4227 154.061 39.8627 154.285 39.1907L154.537 38.3227L149.133 24.7427H152.409L154.789 31.4907C154.995 32.088 155.191 32.7227 155.377 33.3947C155.583 34.048 155.788 34.7014 155.993 35.3547H156.105C156.273 34.72 156.441 34.076 156.609 33.4227C156.796 32.7507 156.973 32.1067 157.141 31.4907L159.213 24.7427H162.321L157.337 39.1067C156.964 40.1334 156.535 41.02 156.049 41.7667C155.564 42.532 154.976 43.12 154.285 43.5307C153.595 43.9414 152.755 44.1467 151.765 44.1467ZM170.448 38.8267C169.16 38.8267 167.994 38.5467 166.948 37.9867C165.922 37.408 165.11 36.5867 164.512 35.5227C163.915 34.44 163.616 33.1334 163.616 31.6027C163.616 30.1094 163.924 28.8307 164.54 27.7667C165.156 26.684 165.95 25.8534 166.92 25.2747C167.891 24.696 168.918 24.4067 170 24.4067C171.251 24.4067 172.296 24.6867 173.136 25.2467C173.976 25.8067 174.602 26.5814 175.012 27.5707C175.442 28.5414 175.656 29.6614 175.656 30.9307C175.656 31.2294 175.638 31.5187 175.6 31.7987C175.582 32.0787 175.544 32.3494 175.488 32.6107H166.024V30.1467H172.8C172.8 29.1574 172.576 28.3827 172.128 27.8227C171.68 27.244 170.99 26.9547 170.056 26.9547C169.534 26.9547 169.02 27.0947 168.516 27.3747C168.031 27.6547 167.62 28.1307 167.284 28.8027C166.967 29.4747 166.808 30.408 166.808 31.6027C166.808 32.6854 166.995 33.572 167.368 34.2627C167.742 34.9347 168.236 35.4387 168.852 35.7747C169.468 36.092 170.131 36.2507 170.84 36.2507C171.438 36.2507 171.998 36.1667 172.52 35.9987C173.062 35.8307 173.566 35.5974 174.032 35.2987L175.152 37.3707C174.518 37.8187 173.79 38.1734 172.968 38.4347C172.166 38.696 171.326 38.8267 170.448 38.8267ZM182.568 38.8267C181.616 38.8267 180.673 38.6494 179.74 38.2947C178.825 37.94 178.032 37.4454 177.36 36.8107L178.788 34.9627C179.404 35.4667 180.029 35.8307 180.664 36.0547C181.299 36.2787 181.971 36.3907 182.68 36.3907C183.427 36.3907 183.977 36.232 184.332 35.9147C184.687 35.5974 184.864 35.2054 184.864 34.7387C184.864 34.3654 184.724 34.048 184.444 33.7867C184.183 33.5254 183.837 33.3014 183.408 33.1147C182.979 32.928 182.503 32.7414 181.98 32.5547C181.308 32.312 180.683 32.0227 180.104 31.6867C179.525 31.332 179.049 30.9027 178.676 30.3987C178.321 29.876 178.144 29.2507 178.144 28.5227C178.144 27.3094 178.592 26.32 179.488 25.5547C180.384 24.7894 181.597 24.4067 183.128 24.4067C184.061 24.4067 184.92 24.5654 185.704 24.8827C186.488 25.1814 187.16 25.5734 187.72 26.0587L186.292 27.8787C185.807 27.524 185.312 27.2627 184.808 27.0947C184.304 26.9267 183.772 26.8427 183.212 26.8427C182.521 26.8427 182.008 26.992 181.672 27.2907C181.336 27.5894 181.168 27.944 181.168 28.3547C181.168 28.6907 181.271 28.98 181.476 29.2227C181.7 29.4467 182.017 29.652 182.428 29.8387C182.839 30.0067 183.333 30.184 183.912 30.3707C184.621 30.6134 185.284 30.912 185.9 31.2667C186.516 31.6027 187.001 32.0414 187.356 32.5827C187.729 33.1054 187.916 33.768 187.916 34.5707C187.916 35.3547 187.711 36.0734 187.3 36.7267C186.889 37.3614 186.283 37.8747 185.48 38.2667C184.696 38.64 183.725 38.8267 182.568 38.8267Z" fill="#F5F5F5"/>
<path d="M37.6366 8.945C37.1416 9.74 36.1966 11.03 34.1266 13.85C33.9166 14.135 33.5715 14.615 33.3615 14.915C32.9115 15.56 30.7665 18.5151 29.5365 20.2101C29.0415 20.9001 28.3515 21.8151 28.0065 22.2651C27.6615 22.7151 26.3715 24.4251 25.1415 26.0751C19.1564 34.1452 18.9764 34.4752 19.4115 36.0802C19.7565 37.2952 21.2115 37.5502 24.6615 37.0252C25.5615 36.8752 26.4165 36.8002 26.5365 36.8602C26.8215 36.9652 26.7765 37.2052 26.1615 38.5252C24.9165 41.2552 21.7365 50.4203 20.7765 54.0503L20.4765 55.1753L22.0065 53.6003C26.9715 48.4703 32.2665 42.8452 34.7866 40.0402C35.4466 39.3052 36.6016 38.0452 37.3366 37.2502C38.0866 36.4552 39.1066 35.3602 39.6316 34.8052C41.4916 32.8102 42.3166 31.3252 42.4666 29.6901C42.6016 28.1901 42.1366 27.2001 40.8616 26.3001C40.4266 26.0001 40.1566 25.9251 39.3616 25.9251C38.4766 25.9251 38.2216 26.0001 36.4516 26.8551C34.8166 27.6651 33.9616 27.9651 33.9616 27.7551C33.9616 27.7101 34.8166 24.5001 35.1466 23.3001C35.4166 22.3551 36.9616 17.1351 38.0116 13.7C38.5666 11.84 39.1366 9.89 39.2866 9.365C39.4216 8.825 39.5716 8.3 39.6166 8.195C39.6766 8.045 39.4966 8 38.9716 8H38.2366L37.6366 8.945Z" fill="#007BFF"/>
<path d="M28.5765 14.63C23.9715 15.35 19.4265 16.9401 16.3364 18.9201C10.0814 22.9101 6.39139 26.3301 5.53638 28.9701C4.96638 30.7102 5.59638 32.5552 7.4264 34.4752C9.16641 36.3052 13.2614 39.5752 15.4364 40.8802C17.9715 42.3802 21.1965 43.8502 23.3865 44.5102C23.6565 44.5852 23.7615 44.3752 24.4215 42.6352C25.2015 40.4902 25.2165 40.5052 24.1965 40.3402C23.5665 40.2352 20.5965 39.1252 19.5465 38.6002C18.4965 38.0752 15.9914 36.3802 14.7614 35.3902C14.1464 34.8802 13.4564 34.3552 13.2464 34.2202C12.6164 33.8152 9.21141 30.3502 9.21141 30.1101C9.21141 29.6151 12.5564 26.4201 14.8364 24.7251C16.9514 23.1651 17.9865 22.5051 19.7865 21.5751C22.3815 20.2401 24.0465 19.6251 27.1965 18.8301C28.0365 18.6051 28.2165 18.4851 28.7715 17.8251C29.3415 17.1501 30.9615 14.6 30.9615 14.39C30.9615 14.27 30.6765 14.3 28.5765 14.63Z" fill="#1C3D5A"/>
<path d="M39.211 17.3004C38.941 18.3804 38.746 19.2804 38.776 19.2954C38.806 19.3254 39.241 19.4154 39.736 19.5204C42.451 20.0604 47.0711 22.5054 50.3111 25.1454C51.9761 26.4954 54.0911 28.4604 54.8111 29.3154C55.3961 30.0205 55.4261 30.0805 55.2161 30.3955C54.3311 31.7605 50.7011 34.9555 47.9111 36.8605C46.111 38.0905 42.451 39.8455 40.561 40.3855C39.001 40.8355 36.616 41.2255 34.711 41.3605L33.751 41.4205L31.9809 43.3255C31.0059 44.3756 30.2109 45.2606 30.2109 45.2756C30.2109 45.3056 31.8759 45.3056 33.931 45.2906C37.126 45.2606 37.846 45.2156 39.211 44.9306C41.536 44.4356 44.071 43.5505 46.546 42.3805C48.0461 41.6755 50.9861 39.7855 52.6361 38.4655C53.0561 38.1355 53.7611 37.5805 54.2111 37.2205C55.4411 36.2905 57.8711 33.7855 58.4561 32.8705C60.3161 29.9605 59.3111 27.5304 54.5261 23.3904C51.7211 20.9604 47.9411 18.4854 45.211 17.3004C43.621 16.6104 40.231 15.3503 39.946 15.3503C39.751 15.3503 39.586 15.8004 39.211 17.3004Z" fill="#1C3D5A"/>
</svg>
